<svg width="32" height="32" viewBox="0 0 32 32" fill="none" xmlns="http://www.w3.org/2000/svg">
<path d="M15.3526 2.79135C15.7688 2.62554 16.2315 2.62554 16.6478 2.79135C17.9896 3.32574 18.2518 5.38358 19.8351 5.49814C20.95 5.57881 22.0442 4.64935 23.163 4.92798C23.6142 5.04036 24.0039 5.32804 24.2482 5.72908C24.9964 6.95798 24.0307 8.76422 25.2512 9.7839C26.0992 10.492 27.5003 10.4004 28.2375 11.2685C28.5479 11.6341 28.7004 12.111 28.6606 12.5919C28.5426 14.0225 26.7187 14.9171 27.1195 16.4589C27.3968 17.5261 28.5672 18.2763 28.6606 19.4087C28.7004 19.8897 28.5479 20.3666 28.2375 20.7322C27.3111 21.8229 25.3079 21.4637 24.7303 22.9419C24.3247 23.9795 24.8455 25.2906 24.2482 26.2715C24.0039 26.6726 23.6142 26.9603 23.163 27.0727C21.7738 27.4186 20.3638 25.9263 19.027 26.7681C18.0726 27.3689 17.7306 28.7783 16.6478 29.2093C16.2315 29.3751 15.7688 29.3751 15.3526 29.2093C14.2698 28.7783 13.9278 27.3689 12.9734 26.7681C11.6531 25.9369 10.203 27.4127 8.83738 27.0727C8.38613 26.9603 7.99643 26.6726 7.75223 26.2715C7.00398 25.0427 7.96955 23.2363 6.7491 22.2167C5.90126 21.5086 4.50008 21.6003 3.76288 20.7322C3.45244 20.3666 3.29995 19.8897 3.3397 19.4087C3.4333 18.2763 4.60336 17.5261 4.88083 16.4589C5.2776 14.9333 3.45622 14.0015 3.3397 12.5919C3.29995 12.111 3.45244 11.6341 3.76288 11.2685C4.68918 10.1774 6.69215 10.537 7.27 9.05876C7.67566 8.02112 7.15494 6.71002 7.75223 5.72908C7.99643 5.32804 8.38613 5.04036 8.83738 4.92798C9.95623 4.64935 11.0503 5.57882 12.1652 5.49814C13.7486 5.38361 14.0107 3.32574 15.3526 2.79135Z" fill="#F0F0F0"/>
<path d="M12 17.7774C12 17.7774 13.1667 17.7774 14.3333 19.9997C14.3333 19.9997 18.0392 14.4441 21.3333 13.333" stroke="white" stroke-width="2" stroke-linecap="round" stroke-linejoin="round"/>
</svg>
