<svg width="182" height="48" viewBox="0 0 182 48" fill="none" xmlns="http://www.w3.org/2000/svg">
<path d="M35.7518 36.6878H23.7716V44.4454L35.7518 40.1923V36.6878ZM41.6971 28.4165C41.5622 29.4718 41.2541 31.0141 40.7254 32.4638L43.8256 33.7518L46.4576 27.3285L42.0683 25.545C41.933 26.5918 41.8077 27.5663 41.6971 28.4165ZM14.7898 20.9477C14.9678 21.0039 15.1446 21.0699 15.3189 21.1478C16.1525 21.52 17.9374 22.2617 19.5098 22.9074V16.1523L17.7125 15.3928L14.7898 20.9477ZM7.66522 16.3524L12.7493 18.5426L14.262 15.6668L9.02855 13.3763L7.66522 16.3524ZM2.92997 12.6898L5.59572 13.8461L5.81033 13.3773L3.0751 12.1995L2.92997 12.6898ZM19.5098 5.26973C19.5098 4.53858 19.7286 3.48911 20.4163 2.58584C21.1567 1.61335 22.3509 0.933594 24.0057 0.933594C25.6642 0.933604 26.8534 1.62144 27.547 2.65984C28.1538 3.56818 28.2842 4.59752 28.2342 5.31747V13.33C28.2342 13.3321 28.2343 13.332 28.2346 13.3329C28.2355 13.3349 28.2387 13.3418 28.2475 13.351C28.2668 13.3712 28.2974 13.3875 28.3336 13.3906C30.0149 13.5345 32.3187 13.8905 34.3328 14.6395C34.437 14.6782 34.6076 14.6775 34.7634 14.6013C34.8334 14.567 34.8742 14.5296 34.8928 14.5068C34.9083 14.4878 34.908 14.4805 34.9081 14.48C35.2144 12.6482 35.6207 10.2755 35.8622 8.87547L35.8712 8.82248L35.8845 8.77044C36.0399 8.14601 36.4276 7.27195 37.1503 6.58304C37.9309 5.83896 39.0813 5.34421 40.5241 5.623C42.0442 5.91674 43.0335 6.65936 43.5639 7.64332C44.0469 8.53926 44.0298 9.44116 44.0298 9.75339C44.0298 9.90284 44.0017 10.1628 43.9798 10.3654C43.9521 10.6217 43.912 10.9684 43.8623 11.3865C43.7626 12.2241 43.622 13.3648 43.4573 14.6791C43.1683 16.9861 42.8036 19.8358 42.4561 22.5384L47.5549 24.6098C49.0572 25.22 49.7782 26.9398 49.1619 28.4437L46.5299 34.867C45.9149 36.3678 44.2019 37.0822 42.7074 36.4615L39.3592 35.0709C39.1562 35.3308 38.929 35.5769 38.6754 35.796V40.1923C38.6754 41.4349 37.8945 42.5428 36.7268 42.9573L24.7471 47.2104C22.8445 47.8858 20.8479 46.4701 20.8479 44.4454V35.7063C19.8496 34.4738 16.9547 31.7733 11.8295 29.5751L11.7733 29.5508L11.7195 29.5221C10.6564 28.9566 9.80938 28.0065 9.33786 26.9366C8.86541 25.8646 8.71709 24.5352 9.29599 23.2989C9.74286 22.3447 10.479 21.6221 11.3569 21.1893L11.3802 21.1449L6.49033 19.0382C5.49162 18.6079 4.85961 17.6838 4.7506 16.6751L1.76982 15.3823C0.411646 14.7931 -0.293862 13.2785 0.127164 11.8553L0.272301 11.3651C0.770186 9.68225 2.62017 8.812 4.2281 9.50419L7.40065 10.87C8.12341 10.3808 9.0611 10.2453 9.92555 10.5731L10.0559 10.6261L15.8262 13.1515C16.6437 12.4596 17.8058 12.25 18.8469 12.6898L19.5098 12.9696V5.26973ZM22.4335 22.9127C22.4334 24.9898 20.3359 26.4159 18.4101 25.6252C16.8473 24.9834 15.0138 24.222 14.1302 23.8273C13.6745 23.6238 13.2248 23.6167 12.8535 23.7371C12.4616 23.8642 12.1326 24.1394 11.9422 24.5458C11.8074 24.8338 11.7931 25.2531 12.0122 25.7503C12.2266 26.2368 12.6147 26.6662 13.0543 26.9113C18.3257 29.1859 21.6005 32.035 23.0316 33.7547H36.4104C36.4538 33.7547 36.5018 33.746 36.5683 33.7132C36.7809 33.6082 37.1219 33.2817 37.4991 32.5641C38.1997 31.2312 38.6363 29.3055 38.7977 28.0403L38.7982 28.037C38.9727 26.6951 39.1864 25.0438 39.413 23.2855C39.8018 20.2687 40.2277 16.9379 40.5565 14.3134C40.7209 13.0008 40.861 11.8669 40.9595 11.0385C41.0089 10.6239 41.0472 10.2896 41.0733 10.0489C41.1051 9.7545 41.1061 9.70115 41.1061 9.75339C41.1061 9.4379 41.089 9.21888 40.9919 9.03873C40.9422 8.94661 40.7714 8.65773 39.9712 8.5031C39.7332 8.45711 39.579 8.48146 39.4787 8.5136C39.3729 8.5475 39.2688 8.6096 39.1641 8.70933C38.9422 8.92097 38.7901 9.23526 38.7302 9.44834C38.4877 10.8546 38.0912 13.1721 37.7913 14.9655C37.6068 16.0686 36.8578 16.8395 36.0463 17.237C35.2422 17.6308 34.2409 17.7334 33.3168 17.3897C31.6475 16.769 29.6336 16.4457 28.0852 16.3132C26.5903 16.1853 25.3105 14.9498 25.3105 13.33V5.20099L25.3167 5.1332C25.3385 4.89901 25.2847 4.54174 25.1183 4.29252C25.0466 4.18529 24.9519 4.09297 24.8108 4.02088C24.6667 3.94718 24.4185 3.86669 24.0057 3.86668C23.2331 3.86668 22.9098 4.14337 22.7399 4.36651C22.5174 4.65888 22.4335 5.0444 22.4335 5.26973V22.9127Z" fill="#E73E2B"/>
<path d="M28.3917 20.6009C27.8326 20.0419 26.9264 20.0419 26.3673 20.6009C25.8083 21.16 25.8083 22.0662 26.3673 22.6253L31.8732 28.1312C32.4323 28.6903 33.3385 28.6903 33.8976 28.1312C34.4567 27.5722 34.4567 26.6659 33.8976 26.1069L28.3917 20.6009Z" fill="white"/>
<path d="M31.872 20.6009C32.4311 20.0419 33.3373 20.0419 33.8964 20.6009C34.4554 21.16 34.4554 22.0662 33.8964 22.6253L28.3904 28.1312C27.8314 28.6903 26.9251 28.6903 26.3661 28.1312C25.807 27.5722 25.807 26.6659 26.3661 26.1069L31.872 20.6009Z" fill="white"/>
<path d="M158.319 33.7107H155.477L151.387 27.3177L149.574 29.0568V33.7107H147.174V16.1973H149.574V26.5094L155.037 21.2186H157.804L153.003 25.7991L158.319 33.7107Z" fill="white"/>
<path d="M138.883 34.0766C134.988 34.0766 132.637 31.3823 132.637 27.4632C132.637 23.5686 134.988 20.8252 138.907 20.8252C142.777 20.8252 145.129 23.5441 145.129 27.4387C145.129 31.3578 142.777 34.0766 138.883 34.0766ZM138.907 32.0926C141.455 32.0926 142.63 30.0596 142.63 27.4632C142.63 24.8423 141.455 22.8337 138.907 22.8337C136.311 22.8337 135.135 24.8423 135.135 27.4632C135.135 30.0596 136.311 32.0926 138.907 32.0926Z" fill="white"/>
<path d="M126.872 20.8486C129.395 20.8486 130.668 22.3673 130.668 25.0372V33.7082H128.268V25.6985C128.268 24.0329 127.925 22.9062 126.088 22.9062C124.3 22.9062 123.173 24.1554 123.173 26.0414V33.7082H120.773V25.6985C120.773 24.0329 120.43 22.9062 118.593 22.9062C116.805 22.9062 115.678 24.1554 115.678 26.0414V33.7082H113.277V21.216H115.678V22.7837H115.727C116.388 21.8284 117.539 20.8486 119.425 20.8486C121.165 20.8486 122.242 21.6325 122.732 23.0286H122.781C123.687 21.8284 124.961 20.8486 126.872 20.8486Z" fill="white"/>
<path d="M104.827 34.0548C100.394 34.0548 97.2829 31.7523 97.0869 27.8087H99.8793C100.075 30.1602 101.471 31.7523 104.754 31.7523C107.57 31.7523 108.428 30.5276 108.428 28.9354C108.428 26.7065 106.713 26.388 103.529 25.5797C100.786 24.8449 97.7728 23.9631 97.7728 20.6319C97.7728 17.5946 100.124 15.8555 103.896 15.8555C107.889 15.8555 110.485 17.8885 110.755 21.4157H107.962C107.668 19.3092 106.468 18.1579 103.921 18.1579C101.716 18.1579 100.59 18.9662 100.59 20.4849C100.59 22.4444 102.427 22.8609 104.68 23.4242C108.06 24.2815 111.245 25.0898 111.245 28.7885C111.245 31.8013 109.212 34.0548 104.827 34.0548Z" fill="white"/>
<path d="M95.4009 20.9258C95.8418 20.9258 96.1847 20.9503 96.5521 20.9993V23.3017C96.2582 23.2527 96.0377 23.2282 95.7438 23.2282C93.5638 23.2282 91.9962 24.8694 91.9962 27.2453V33.7118H89.5957V21.2197H91.9962V23.5957H92.0451C92.7065 22.028 93.7108 20.9258 95.4009 20.9258Z" fill="white"/>
<path d="M80.0378 34.0521C77.5394 34.0521 75.9473 32.607 75.9473 30.476C75.9473 27.6836 78.0538 26.8508 81.1646 26.2629C83.1241 25.8955 84.3243 25.6506 84.3243 24.4259C84.3243 23.5196 83.7855 22.7602 81.9484 22.7602C79.7684 22.7602 79.107 23.4461 78.9846 25.1117H76.5351C76.6576 22.7113 78.2252 20.8252 82.0464 20.8252C84.6183 20.8252 86.6758 21.9029 86.6758 25.1362V30.8679C86.6758 31.7742 86.7983 32.2396 87.2637 32.2396C87.3371 32.2396 87.4106 32.2396 87.5576 32.2151V33.6847C87.1412 33.7827 86.7248 33.8317 86.3329 33.8317C85.1326 33.8317 84.4958 33.3663 84.3488 31.9456H84.2998C83.4915 33.2438 82.0709 34.0521 80.0378 34.0521ZM80.5767 32.1171C82.7322 32.1171 84.3243 31.0148 84.3243 28.8348V27.0468C83.9324 27.4142 82.8547 27.6836 81.581 27.9531C79.3765 28.3939 78.4457 29.0063 78.4457 30.3045C78.4457 31.4802 79.0825 32.1171 80.5767 32.1171Z" fill="white"/>
<path d="M66.7769 33.7107H60.0654V16.1973H66.7279C71.5778 16.1973 74.5171 19.3325 74.5171 24.9662C74.5171 30.5999 71.6268 33.7107 66.7769 33.7107ZM62.7598 31.3838H66.6054C70.6715 31.3838 71.7247 28.3465 71.7247 24.9662C71.7247 21.586 70.6715 18.5242 66.6054 18.5242H62.7598V31.3838Z" fill="white"/>
<path d="M149.574 16.1937H147.174V33.7072H149.574V29.0533L151.387 27.3143L155.477 33.7072H158.319L153.004 25.7953L157.804 21.2151H155.036L149.574 26.5058V16.1937ZM149.721 26.1589L154.934 21.1094L154.977 21.0682H158.171L153.194 25.8164L158.594 33.8541H155.397L155.353 33.7866L151.359 27.5434L149.721 29.1155V33.8541H147.027V16.0469H149.721V26.1589Z" fill="white"/>
<path d="M145.133 27.4381C145.133 23.6044 142.854 20.9099 139.091 20.8265L138.911 20.8246C134.992 20.8246 132.641 23.5679 132.641 27.4625L132.647 27.8261C132.786 31.4872 135.039 33.9941 138.705 34.074L138.887 34.076C142.659 34.0759 144.984 31.5242 145.125 27.8017L145.133 27.4381ZM142.487 27.4625C142.487 26.1713 142.197 25.0485 141.61 24.2524C141.027 23.4624 140.141 22.9798 138.911 22.9798C137.656 22.9798 136.758 23.4631 136.169 24.2529C135.576 25.0488 135.286 26.1712 135.286 27.4625C135.286 28.7412 135.576 29.8638 136.169 30.663C136.758 31.4562 137.656 31.9451 138.911 31.9451V32.092L138.672 32.0858C136.321 31.9681 135.211 30.104 135.142 27.7041L135.139 27.4625C135.139 24.8416 136.315 22.833 138.911 22.833L139.146 22.8387C141.531 22.9591 142.634 24.9235 142.634 27.4625L142.631 27.7041C142.559 30.1839 141.379 32.092 138.911 32.092V31.9451C140.14 31.9451 141.026 31.4572 141.609 30.664C142.197 29.8645 142.487 28.7412 142.487 27.4625ZM145.28 27.4381C145.279 29.4265 144.683 31.124 143.578 32.3259C142.473 33.5294 140.87 34.2228 138.887 34.2228C136.904 34.2228 135.301 33.5357 134.195 32.3384C133.09 31.1424 132.493 29.4509 132.493 27.4625C132.493 25.4861 133.09 23.7887 134.198 22.5837C135.307 21.3773 136.915 20.6777 138.911 20.6777C140.882 20.6778 142.479 21.371 143.581 22.5713C144.682 23.7701 145.28 25.4616 145.28 27.4381Z" fill="white"/>
<path d="M130.672 25.0365C130.672 22.4501 129.477 20.944 127.108 20.8523L126.876 20.848C124.965 20.848 123.691 21.8279 122.785 23.0281H122.736L122.689 22.899C122.195 21.626 121.182 20.8962 119.59 20.8504L119.429 20.848C117.543 20.8481 116.392 21.8279 115.731 22.7832H115.682V21.2155H113.281V33.7076H115.682V26.0407C115.682 24.1548 116.808 22.9058 118.596 22.9057L118.764 22.909C120.455 22.9766 120.776 24.0845 120.776 25.6981V33.7076H123.177V26.0407C123.177 24.1547 124.304 22.9057 126.092 22.9057L126.26 22.909C127.95 22.9768 128.271 24.0846 128.271 25.6981V33.7076H130.672V25.0365ZM115.829 22.4072C116.536 21.5249 117.676 20.7012 119.429 20.7012C120.321 20.7012 121.055 20.902 121.633 21.2925C122.156 21.6458 122.54 22.1484 122.796 22.7751C123.713 21.6263 124.994 20.7012 126.876 20.7012C128.167 20.7012 129.161 21.091 129.83 21.8436C130.496 22.5933 130.819 23.6805 130.819 25.0365V33.8544H128.125V25.6981C128.125 24.8673 128.037 24.2077 127.747 23.7567C127.467 23.3218 126.978 23.0526 126.092 23.0525C125.234 23.0525 124.546 23.3511 124.072 23.8653C123.596 24.3809 123.324 25.1266 123.324 26.0407V33.8544H120.629V25.6981C120.629 24.8672 120.542 24.2077 120.252 23.7567C119.972 23.3218 119.482 23.0525 118.596 23.0525C117.738 23.0526 117.05 23.3511 116.576 23.8653C116.101 24.3809 115.829 25.1266 115.829 26.0407V33.8544H113.134V21.0686H115.829V22.4072Z" fill="white"/>
<path d="M100.019 27.6585L100.03 27.7929C100.126 28.9428 100.513 29.8886 101.261 30.5486C102.009 31.2093 103.139 31.602 104.758 31.602V31.7489L104.456 31.7441C101.39 31.6485 100.074 30.0833 99.884 27.8054H97.0915C97.2814 31.6256 100.207 33.9059 104.42 34.0447L104.832 34.0514C109.079 34.0514 111.12 31.9364 111.243 29.065L111.249 28.7852C111.249 25.0865 108.065 24.2781 104.685 23.4208C102.502 22.8751 100.71 22.4672 100.6 20.6609L100.594 20.4815C100.594 18.9628 101.721 18.1545 103.926 18.1545L104.16 18.1579C106.47 18.2252 107.607 19.299 107.937 21.2177L107.967 21.4125H110.759C110.49 17.8853 107.893 15.8519 103.901 15.8519C100.129 15.852 97.7771 17.5912 97.7771 20.6283C97.7771 23.9595 100.79 24.8417 103.533 25.5765C106.718 26.3848 108.432 26.703 108.432 28.932L108.43 29.0803C108.377 30.5996 107.487 31.7489 104.758 31.7489V31.602C106.149 31.602 107.025 31.2992 107.554 30.8279C108.079 30.3598 108.285 29.7022 108.285 28.932C108.285 28.3938 108.182 27.9834 107.988 27.6556C107.794 27.3281 107.503 27.0707 107.106 26.85C106.3 26.4026 105.101 26.1257 103.497 25.7186L103.495 25.7181C102.128 25.3518 100.665 24.9425 99.5453 24.1982C98.4144 23.4463 97.6302 22.3501 97.6302 20.6283C97.6302 19.0676 98.2367 17.8291 99.3348 16.9848C100.428 16.1443 101.994 15.7051 103.901 15.7051C105.921 15.7051 107.604 16.2194 108.818 17.1948C110.035 18.1722 110.768 19.6015 110.906 21.401L110.918 21.5593H107.839L107.821 21.4325C107.677 20.4023 107.315 19.6265 106.696 19.1061C106.077 18.5848 105.178 18.3014 103.926 18.3014C102.837 18.3014 102.04 18.5018 101.518 18.8688C101.005 19.2297 100.741 19.7636 100.741 20.4815C100.741 20.9471 100.85 21.3124 101.04 21.6091C101.231 21.9068 101.511 22.1452 101.867 22.3468C102.586 22.754 103.585 22.9945 104.72 23.2782H104.721C106.404 23.7051 108.071 24.1267 109.313 24.9134C109.938 25.3089 110.46 25.7995 110.826 26.4338C111.192 27.0685 111.396 27.8386 111.396 28.7852C111.396 30.3258 110.875 31.6853 109.782 32.6578C108.691 33.6287 107.048 34.1983 104.832 34.1983C102.591 34.1983 100.67 33.6163 99.2817 32.5225C97.8903 31.4263 97.0446 29.8247 96.9447 27.8126L96.937 27.6585H100.019Z" fill="white"/>
<path d="M96.5521 20.992C96.2765 20.9553 96.0146 20.9323 95.7149 20.9231L95.4006 20.9188C93.7106 20.9189 92.7064 22.0208 92.045 23.5883H91.9962V21.2126H89.5956V33.7047H91.9962V27.2381C91.9963 24.8622 93.5637 23.221 95.7436 23.2209C96.0375 23.2209 96.2582 23.2456 96.5521 23.2946V20.992ZM96.699 23.4683L96.5277 23.4396C96.2392 23.3915 96.0271 23.3683 95.7436 23.3683C94.6921 23.3683 93.7949 23.7633 93.1597 24.4394C92.524 25.1162 92.1431 26.0828 92.1431 27.2381V33.8516H89.4487V21.0657H92.1431V23.0291C92.4388 22.446 92.7963 21.9394 93.241 21.5546C93.8126 21.0602 94.5201 20.7715 95.4006 20.7715C95.8477 20.7715 96.1973 20.7967 96.5712 20.8466L96.699 20.8633V23.4683Z" fill="white"/>
<path d="M75.8008 30.4755C75.8008 29.0332 76.3492 28.0803 77.3063 27.4209C78.2497 26.771 79.5817 26.4117 81.1374 26.1177H81.1379C82.1247 25.9326 82.8924 25.7826 83.416 25.5326C83.6745 25.4092 83.8627 25.2661 83.9868 25.092C84.1095 24.9197 84.1777 24.7057 84.1777 24.4251C84.1776 24.0021 84.0533 23.6329 83.7318 23.3654C83.4049 23.0935 82.8507 22.9066 81.9488 22.9066C80.8671 22.9066 80.2016 23.0783 79.7897 23.4233C79.3827 23.7643 79.1917 24.302 79.1314 25.1216L79.1214 25.258H76.3806L76.3887 25.1035C76.4515 23.8728 76.8864 22.7603 77.8077 21.957C78.7275 21.155 80.1134 20.6777 82.0468 20.6777C83.3497 20.6778 84.5457 20.9501 85.4182 21.6532C86.2965 22.361 86.8232 23.4857 86.8232 25.1355V30.8673C86.8232 31.3203 86.8549 31.6383 86.9328 31.8399C86.9706 31.9376 87.0153 31.9981 87.0639 32.0346C87.1109 32.0699 87.1733 32.092 87.2638 32.092V32.2389L87.1806 32.2336C86.8366 32.1864 86.7098 31.8328 86.6821 31.1864L86.6759 30.8673V25.1355C86.6759 22.0032 84.7451 20.8937 82.286 20.8275L82.0468 20.8246C78.2257 20.8246 76.6581 22.7107 76.5356 25.1111H78.985L78.998 24.9575C79.1502 23.4032 79.837 22.7598 81.9488 22.7598L82.1172 22.7617C83.8189 22.8071 84.3245 23.5472 84.3245 24.4251C84.3245 25.6498 83.1242 25.8947 81.1647 26.2622C78.054 26.85 75.9477 27.6832 75.9477 30.4755L75.9524 30.6731C76.0451 32.6299 77.518 33.9632 79.8065 34.0472L80.038 34.0516C82.071 34.0516 83.4918 33.2433 84.3001 31.9451H84.3489C84.4867 33.2769 85.0553 33.7689 86.1147 33.8253L86.3334 33.831C86.7252 33.831 87.1417 33.7821 87.5581 33.6841V32.2145C87.4111 32.239 87.3373 32.2389 87.2638 32.2389V32.092C87.3327 32.092 87.3975 32.0922 87.5337 32.0695L87.7049 32.0408V33.8004L87.5916 33.8272C87.1648 33.9276 86.7372 33.9779 86.3334 33.9779C85.7175 33.9779 85.2146 33.8591 84.8479 33.5301C84.5386 33.2525 84.3459 32.8429 84.248 32.2848C83.3863 33.4764 81.9757 34.1984 80.038 34.1984C78.7611 34.1984 77.7012 33.8289 76.9585 33.1727C76.2143 32.5151 75.8008 31.5797 75.8008 30.4755ZM84.1777 28.8341V27.3304C83.9543 27.4602 83.6604 27.5737 83.3271 27.6763C82.8426 27.8254 82.2487 27.9616 81.6115 28.0964H81.6101C80.5113 28.3161 79.7545 28.5749 79.2735 28.9254C78.8054 29.2666 78.5928 29.6989 78.5928 30.3037C78.5928 30.8656 78.7445 31.2717 79.0487 31.5409C79.3565 31.8133 79.8473 31.9695 80.5772 31.9695V32.1164L80.4394 32.1145C79.0436 32.076 78.4459 31.4427 78.4459 30.3037C78.4459 29.0867 79.2641 28.4724 81.1828 28.037L81.5814 27.9524C82.8549 27.683 83.9325 27.4136 84.3245 27.0463V28.8341C84.3245 31.014 82.7326 32.1163 80.5772 32.1164V31.9695C81.6317 31.9695 82.532 31.6996 83.1658 31.1792C83.7957 30.662 84.1777 29.8849 84.1777 28.8341Z" fill="white"/>
<path d="M74.5175 24.9629C74.5175 19.4173 71.6694 16.2925 66.9544 16.1961L66.7286 16.1937V16.0469C69.1862 16.0469 71.1765 16.8423 72.5508 18.3671C73.9232 19.89 74.6644 22.1218 74.6644 24.9629C74.6643 27.8033 73.9358 30.0288 72.5756 31.5458C71.2134 33.065 69.2349 33.8541 66.7774 33.8541H59.9189V16.0469H66.7286V16.1937H60.0658V33.7072H66.7774C71.5514 33.7072 74.4268 30.6929 74.5156 25.2251L74.5175 24.9629ZM71.5782 24.9629C71.5782 23.2832 71.3157 21.7069 70.5673 20.5544C69.8262 19.4134 68.5957 18.6676 66.6061 18.6676H62.9071V31.2334H66.6061V31.3802H62.7602V18.5207H66.6061C70.672 18.5208 71.725 21.5827 71.725 24.9629L71.7222 25.2787C71.6565 28.5298 70.5449 31.3801 66.6061 31.3802V31.2334C68.5962 31.2333 69.8264 30.4933 70.5673 29.3585C71.3155 28.2123 71.5781 26.6426 71.5782 24.9629Z" fill="white"/>
<path d="M172.231 19.1911C172.476 19.0938 172.747 19.0938 172.991 19.1911C173.779 19.5047 173.933 20.7122 174.862 20.7795C175.516 20.8268 176.158 20.2814 176.815 20.4449C177.079 20.5108 177.308 20.6797 177.451 20.915C177.89 21.6361 177.324 22.696 178.04 23.2943C178.538 23.7098 179.36 23.6561 179.792 24.1655C179.974 24.38 180.064 24.6599 180.04 24.9421C179.971 25.7815 178.901 26.3065 179.136 27.2111C179.299 27.8374 179.986 28.2776 180.04 28.9421C180.064 29.2243 179.974 29.5042 179.792 29.7187C179.249 30.3587 178.073 30.1479 177.734 31.0154C177.496 31.6242 177.802 32.3936 177.451 32.9692C177.308 33.2045 177.079 33.3733 176.815 33.4393C175.999 33.6423 175.172 32.7666 174.388 33.2605C173.828 33.6131 173.627 34.4401 172.991 34.693C172.747 34.7903 172.476 34.7903 172.231 34.693C171.596 34.4401 171.395 33.6131 170.835 33.2605C170.061 32.7728 169.21 33.6388 168.408 33.4393C168.144 33.3733 167.915 33.2045 167.772 32.9692C167.333 32.2481 167.899 31.1881 167.183 30.5898C166.685 30.1743 165.863 30.2281 165.431 29.7187C165.249 29.5042 165.159 29.2243 165.182 28.9421C165.237 28.2776 165.924 27.8374 166.087 27.2111C166.32 26.3159 165.251 25.7692 165.182 24.9421C165.159 24.6599 165.249 24.38 165.431 24.1655C165.974 23.5253 167.15 23.7363 167.489 22.8688C167.727 22.2599 167.421 21.4906 167.772 20.915C167.915 20.6797 168.144 20.5108 168.408 20.4449C169.065 20.2814 169.707 20.8268 170.361 20.7795C171.29 20.7123 171.444 19.5047 172.231 19.1911Z" fill="#2655FF"/>
<path d="M170.264 27.9859C170.264 27.9859 170.949 27.9859 171.633 29.2899C171.633 29.2899 173.808 26.0299 175.741 25.3779" stroke="white" stroke-width="2" stroke-linecap="round" stroke-linejoin="round"/>
</svg>
